<svg xmlns="http://www.w3.org/2000/svg" xmlns:xlink="http://www.w3.org/1999/xlink" version="1.1" x="0px" y="0px" viewBox="0 0 100 125" enable-background="new 0 0 100 100" xml:space="preserve"><path fill="#bf9cbb" fill-rule="evenodd" clip-rule="evenodd" d="M6.622,35.148c18.916-1.04,41.313,4.947,43.826,4.96  c3.017,0.016,27.53-5.467,42.912-4.774c0.982,0.044,1.756,0.854,1.756,1.837c0,1.112,0,2.225,0,3.338c0,0.397-0.11,0.739-0.34,1.064  c-0.544,0.767-1.089,1.535-1.634,2.302c0.675,12.821-4.651,20.366-17.85,20.988C64.078,65.43,57.448,59.162,54.18,47.575  c-0.426-1.51-2.038-2.559-3.754-2.601c-1.419-0.035-2.883,1.108-3.344,2.357c-4.501,12.203-10.318,18.573-21.927,17.533  c-10.063-1.468-18.277-5.227-17.312-20.36c-0.819-0.87-1.639-1.739-2.459-2.608c-0.333-0.354-0.501-0.774-0.501-1.261  c0-1.217,0-2.434,0-3.65C4.884,36.007,5.646,35.202,6.622,35.148L6.622,35.148z M80.107,42.371L66.936,55.771  c0.688,0.575,1.416,1.092,2.183,1.548L83.416,42.3C82.341,42.301,81.235,42.326,80.107,42.371L80.107,42.371z M71.028,39.273  l-12.3,12.584c0.646,1.29,1.361,2.473,2.148,3.545L77.84,38.513C75.572,38.723,73.282,38.984,71.028,39.273L71.028,39.273z   M24.458,38.552L11.211,51.511c0.51,1.575,1.202,2.924,2.05,4.081l16.483-16.304C28.043,39.027,26.273,38.778,24.458,38.552  L24.458,38.552z M30.429,43.89L18.46,56.167c0.687,0.5,1.42,0.942,2.194,1.334L33.71,44.483  C32.67,44.289,31.574,44.089,30.429,43.89z"/></svg>
