<svg xmlns="http://www.w3.org/2000/svg" xmlns:xlink="http://www.w3.org/1999/xlink" version="1.1" x="0px" y="0px" viewBox="0 0 100 125" enable-background="new 0 0 100 100" xml:space="preserve"><path fill="#bf9cbb" d="M66.806,3.109c-7.86,0-15.347,2.82-15.422,2.849l-0.83,0.317l-0.836-0.317  c-0.073-0.029-7.568-2.849-15.431-2.849c-9.252,0-14.982,3.852-17.031,11.448c-0.82,3.043-2.04,6.541-3.388,10.262L39.52,37.499  c0,0,3.021,1.882,2.019,5.228c-0.001,0.001,0,0.002-0.001,0.004c-6.027,20.035-12.229,41.915-12.751,46.07l-0.016,0.767  c0.001,0.024,0.232,4.825,9.055,7.306l10.109-9.869v-9.524h-6.577h-1.002c-1.292,0-2.339-1.047-2.339-2.339s1.047-2.339,2.339-2.339  h1.002h16.708h1.671c1.291,0,2.339,1.047,2.339,2.339s-1.048,2.339-2.339,2.339h-1.671h-5.453v9.524l10.372,9.923  c9.011-2.466,9.317-7.348,9.318-7.413l0.155-1.971c-1.255-6.241-7.147-26.313-12.494-44.813c0-0.001,0-0.002,0-0.003  c-1.337-3.187,1.588-5.029,1.588-5.029l25.701-12.73c-1.368-3.776-2.597-7.326-3.428-10.41C81.776,6.961,76.055,3.109,66.806,3.109z   M70.671,21.111c-0.327,1.522-1.21,1.842-1.846,1.863c-0.232-0.033-0.465-0.064-0.693-0.088c-0.003-0.002-0.011-0.004-0.011-0.004  l0.003,0.002c-9.529-1.014-15.909,4.8-15.978,4.864l-0.154,0.144c-1.349,1.072-2.67,0.146-2.843,0.016l-0.02-0.016  c-5.81-4.465-13.25-5.186-16.835-5.25l0,0c0,0-2.121,0.042-2.326-2.27c-0.201-2.272,1.75-2.412,1.816-2.416  c3.692-0.005,11.747,0.574,18.689,5.158c2.878-2.086,9.641-5.987,18.702-4.813C69.483,18.372,71.154,18.852,70.671,21.111z   M70.658,12.358v0.002c-0.668,2.109-2.648,2.011-2.648,2.011s0.021,0.01,0.021,0.012c-9.621-1.229-16.124,2.992-16.193,3.039  c-1.331,0.725-2.541,0.063-2.541,0.063c-6.551-4.151-13.693-3.498-16.963-3.498c0,0-0.002,0-0.003,0c-0.01,0-0.021-0.065-0.03-0.063  c-0.241,0.025-1.827,0.039-2.353-2.159c-0.481-2.013,0.817-2.404,1.23-2.478c3.481-0.487,11.587-0.952,19.407,3.447  c2.742-1.441,9.477-4.257,18.56-2.934C69.384,9.866,71.326,10.395,70.658,12.358z"/><path fill="#bf9cbb" d="M50.4,91.248l-6.875,6.7c2.046,0.237,4.375,0.373,7.028,0.373c2.583,0,4.854-0.131,6.86-0.356L50.4,91.248z"/><path fill="#bf9cbb" d="M10.486,34.396c-0.912,2.591-1.84,5.237-2.653,7.903C7.88,44.9,8.801,62.386,24.936,69.956  c0,0.001,0.004,0.001,0.006,0.002c0.171,0.08,0.324,0.151,0.499,0.23c2.364,0.796,3.781-2.035,3.781-2.035s0,0.001,0,0.002  c1.336-5.695,3.566-12.474,5.91-20.335c0.925-3.545-2.406-2.762-2.406-2.762l0.292-0.124l-8.71,1.25  c-2.529,0.362-3.539-1.111-3.686-1.327L13.85,34.411c0-0.001,0-0.002,0-0.003C11.845,31.632,10.55,34.271,10.486,34.396z"/><polygon fill="#bf9cbb" points="34.136,40.053 17.627,31.892 23.94,41.514 "/><path fill="#bf9cbb" d="M3.144,6.58c-1.003,2.356-1.276,4.636-0.782,6.81c1.016,4.472,4.895,7.699,7.298,9.32  c1.238-3.429,2.344-6.631,3.083-9.369c0.487-1.806,1.14-3.452,1.953-4.939L6.727,4.664C6.727,4.664,4.281,4.323,3.144,6.58z"/><path fill="#bf9cbb" d="M6.66,57.401c-1.198-2.437-2.25,0.423-2.284,0.517c-0.635,6.305-0.052,12.209,2.66,17.084  c2.83,5.087,7.776,8.691,14.995,10.958c0.439,0.101,2.493,0.439,3.044-1.9c0.003-0.014,0.023-0.025,0.026-0.04  c0.324-1.432,0.756-3.098,1.247-5.015c0.002-0.01,0.009-0.018,0.012-0.027c0.729-2.93-1.818-4.128-1.818-4.128v-0.002  C14.518,70.881,9.672,63.924,6.762,57.423C6.758,57.415,6.664,57.409,6.66,57.401z"/><path fill="#bf9cbb" d="M72.526,68.888c0,0,0.603,1.876,2.555,1.354c17.718-7.814,18.127-27.356,18.121-28.254  c-0.821-2.669-1.704-5.435-2.619-8.026c-0.64-1.828-2.271-0.591-2.271-0.591h0.019l-6.768,10.449  c-1.21,1.869-2.959,2.263-3.894,2.334l-11.189-1.51c-0.002,0-1.168,0.162-0.5,1.414c0,0.001,0,0.001,0,0.003  C68.653,55.02,70.779,62.632,72.526,68.888z"/><path fill="#bf9cbb" d="M86.364,8.247c0.853,1.528,1.511,3.225,2.015,5.094c0.722,2.674,1.781,5.793,2.983,9.132  c2.421-1.699,6.007-4.852,6.964-9.103c0.493-2.191,0.207-4.487-0.818-6.863c-1.162-2.432-3.035-1.871-3.839-1.552l-0.287,0.252  V5.139L86.364,8.247z"/><path fill="#bf9cbb" d="M74.891,77.965c0.001,0.005,0.001,0.01,0.003,0.014c0.663,2.561,1.194,4.733,1.584,6.499h0.001  c0,0,0.753,1.969,3.301,1.257c0.052-0.017,0.104-0.032,0.154-0.049c0.006-0.002,0.012-0.004,0.017-0.006  c6.745-2.279,11.391-5.797,14.104-10.676c2.844-5.11,3.345-11.351,2.558-17.998c-0.299-0.667-1.201-2.294-2.195-0.272  c-0.12,0.246-0.246,0.424-0.375,0.549c-2.856,6.447-8.022,13.37-17.373,17.395C76.669,74.677,74.343,75.818,74.891,77.965z"/><polygon fill="#bf9cbb" points="67.312,40.053 77.508,41.514 83.822,31.892 "/></svg>
