<svg xmlns="http://www.w3.org/2000/svg" xmlns:xlink="http://www.w3.org/1999/xlink" version="1.1" x="0px" y="0px" viewBox="0 0 100 125" enable-background="new 0 0 100 100" xml:space="preserve"><path fill="#49274A" d="M49.094,21.481l1.123,0.704l1.104-0.73c0.065-0.043,6.622-4.285,16.062-2.324l0.83-3.999  c-8.815-1.832-15.436,0.907-18.006,2.257c-8.828-4.968-18.074-2.836-18.479-2.739l0.947,3.972  C32.76,18.602,41.453,16.642,49.094,21.481z"/><path fill="#49274A" d="M50.118,26.458c-7.988-5.275-17.667-4.482-18.097-4.443l0.363,4.068c0.095-0.009,9.611-0.79,16.558,4.55  l1.372,1.054l1.266-1.179c0.064-0.06,6.467-5.904,15.803-3.963l0.83-3.999C59.421,20.719,52.816,24.503,50.118,26.458z"/><path fill="#49274A" d="M13.024,30.039C7.859,44.176,1.765,61.488,8.603,73.777c3.39,6.093,9.688,10.258,18.729,12.394  c0.317,1.145,1.016,2.71,2.549,4.275c3.773,3.852,10.604,5.804,20.307,5.804s16.534-1.952,20.304-5.804  c1.532-1.566,2.23-3.132,2.548-4.275c9.04-2.136,15.336-6.301,18.725-12.393c6.868-12.342,0.688-29.754-4.492-43.925  c2.56-1.636,7.351-5.363,8.629-10.986c0.978-4.308-0.284-8.744-3.748-13.187l-1.004-1.285l-12.2,5.724  c-3.35-3.44-8.257-5.225-14.556-5.225c-6.313,0-12.188,1.805-14.205,2.497c-2.02-0.692-7.896-2.497-14.212-2.497  c-6.371,0-11.316,1.829-14.668,5.346L8.849,4.396L7.847,5.68C4.381,10.124,3.121,14.56,4.1,18.867  C5.428,24.715,10.558,28.513,13.024,30.039z M27.437,81.986c-7.506-1.912-12.517-5.257-15.265-10.195  c-2.959-5.317-3.013-12.035-1.724-19.088c2.237,7.033,7.391,15.93,19.257,19.833C28.594,76.723,27.837,79.874,27.437,81.986z   M12.819,43.219c1.009-3.307,2.158-6.585,3.295-9.729l8.83,13.454l12.638-1.811c-2.847,9.496-5.115,17.314-6.806,23.452  C13.793,62.865,12.864,45.649,12.819,43.219z M21.418,34.126l14.424,7.129l-8.908,1.277L21.418,34.126z M50.188,92.166  c-2.318,0-4.353-0.119-6.141-0.325l6.006-5.856l6.129,5.871C54.427,92.052,52.443,92.166,50.188,92.166z M88.195,71.793  c-2.713,4.875-7.631,8.193-14.974,10.118c-0.412-2.149-1.182-5.343-2.312-9.586c11.843-4.15,16.796-13.352,18.867-20.368  C91.209,59.282,91.258,66.288,88.195,71.793z M87.462,42.949l-0.28,0.004c0.002,0.199-0.015,19.098-17.349,25.407  c-1.684-6.103-3.932-13.85-6.743-23.227l12.638,1.811l8.629-13.15C85.429,36.759,86.506,39.839,87.462,42.949z M64.829,41.256  l14.426-7.129l-5.519,8.407L64.829,41.256z M89.877,9.504c1.954,2.949,2.643,5.784,2.045,8.44c-0.837,3.715-3.978,6.469-6.092,7.953  c-1.051-2.917-1.988-5.644-2.618-7.98c-0.44-1.633-1.038-3.115-1.782-4.45L89.877,9.504z M35.975,8.979  c6.87,0,13.418,2.464,13.483,2.489l0.73,0.278l0.728-0.279c0.066-0.024,6.581-2.489,13.477-2.489  c8.081,0,13.085,3.366,14.875,10.003c0.728,2.694,1.812,5.795,3.009,9.095l-24.884,12.3l0.499,1.655  c5.006,16.579,10.291,35.087,11.422,40.717l-0.136,0.023l0.035,1.699c0,0.057-0.245,4.323-8.117,6.477l-9.018-8.67v-8.399h8.175  V69.79h-21.02v4.088h8.759v8.399l-8.879,8.622c-7.708-2.167-7.957-6.362-7.958-6.383l0.013-0.666  c0.467-3.732,6.203-23.903,11.613-41.819l0.5-1.655L18.134,27.947c1.178-3.251,2.243-6.307,2.959-8.966  C22.885,12.344,27.89,8.979,35.975,8.979z M10.121,9.504l8.736,4.098c-0.71,1.299-1.282,2.737-1.707,4.315  c-0.645,2.393-1.611,5.191-2.692,8.187c-2.101-1.417-5.488-4.236-6.376-8.142C7.477,15.3,8.163,12.46,10.121,9.504z"/></svg>
